<svg width="106" height="57" viewBox="0 0 106 57" fill="none" xmlns="http://www.w3.org/2000/svg">
<g filter="url(#filter0_d_2378_11693)">
<path d="M9.58359 45.9998C8.25811 45.9998 7.18359 44.9253 7.18359 43.5998V9.63183C7.18359 6.31812 9.86988 3.63184 13.1836 3.63184H26.2556C30.7783 3.63184 34.3409 4.86917 36.9436 7.34384C39.5463 9.77584 40.8476 13.0825 40.8476 17.2638C40.8476 21.4452 39.5463 24.7732 36.9436 27.2478C34.3409 29.6798 30.7783 30.8958 26.2556 30.8958H17.9836C14.6699 30.8958 11.9836 33.5821 11.9836 36.8958V43.5998C11.9836 44.9253 10.9091 45.9998 9.58359 45.9998V45.9998ZM11.9836 20.4158C11.9836 23.7295 14.6699 26.4158 17.9836 26.4158H25.9356C29.2636 26.4158 31.7809 25.6052 33.4876 23.9838C35.1943 22.3625 36.0476 20.1225 36.0476 17.2638C36.0476 14.4478 35.1943 12.2292 33.4876 10.6078C31.7809 8.9865 29.2636 8.17584 25.9356 8.17584H17.9836C14.6699 8.17584 11.9836 10.8621 11.9836 14.1758V20.4158Z" fill="#FF0844"/>
<path d="M59.3711 45.9998C58.0456 45.9998 56.9711 44.9253 56.9711 43.5998V7.34855C56.9711 5.29587 58.6351 3.63184 60.6878 3.63184V3.63184C61.8537 3.63184 62.952 4.1789 63.6544 5.10946L72.8772 17.3288C75.2901 20.5255 80.0979 20.5059 82.4846 17.2895L91.5084 5.12866C92.2071 4.18702 93.3104 3.63184 94.483 3.63184V3.63184C96.5287 3.63184 98.1871 5.29022 98.1871 7.33593V43.5998C98.1871 44.9253 97.1126 45.9998 95.7871 45.9998V45.9998C94.4616 45.9998 93.3871 44.9253 93.3871 43.5998V28.415C93.3871 22.7021 86.1584 20.2219 82.651 24.7314L82.405 25.0477C80.0148 28.1208 75.3761 28.139 72.9619 25.0848L72.4781 24.4728C68.95 20.0097 61.7711 22.5044 61.7711 28.1936V43.5998C61.7711 44.9253 60.6966 45.9998 59.3711 45.9998V45.9998Z" fill="#FF0844"/>
<path d="M37.9677 28.3438L37.9678 28.3439L37.9772 28.3349C40.9271 25.5301 42.3476 21.7826 42.3476 17.2638C42.3476 12.7481 40.9285 9.01708 37.9724 6.25227C35.024 3.45151 31.0561 2.13184 26.2556 2.13184H13.1836C9.04146 2.13184 5.68359 5.48969 5.68359 9.63183V43.5998C5.68359 45.7537 7.42968 47.4998 9.58359 47.4998C11.7375 47.4998 13.4836 45.7537 13.4836 43.5998V36.8958C13.4836 34.4106 15.4983 32.3958 17.9836 32.3958H26.2556C31.0519 32.3958 35.018 31.1001 37.9677 28.3438ZM25.9356 24.9158H17.9836C15.4983 24.9158 13.4836 22.9011 13.4836 20.4158V14.1758C13.4836 11.6906 15.4983 9.67584 17.9836 9.67584H25.9356C29.0387 9.67584 31.1241 10.4314 32.4545 11.6953C33.8053 12.9786 34.5476 14.7718 34.5476 17.2638C34.5476 19.8061 33.8007 21.6174 32.4545 22.8963C31.1241 24.1602 29.0387 24.9158 25.9356 24.9158ZM55.4711 7.34855V43.5998C55.4711 45.7537 57.2172 47.4998 59.3711 47.4998C61.525 47.4998 63.2711 45.7537 63.2711 43.5998V28.1936C63.2711 23.9267 68.6553 22.0556 71.3013 25.403L71.7851 26.015C74.803 29.8328 80.6013 29.81 83.589 25.9686L83.835 25.6523C86.4656 22.2702 91.8871 24.1304 91.8871 28.415V43.5998C91.8871 45.7537 93.6332 47.4998 95.7871 47.4998C97.941 47.4998 99.6871 45.7538 99.6871 43.5998V7.33593C99.6871 4.46179 97.3571 2.13184 94.483 2.13184C92.8356 2.13184 91.2855 2.91185 90.3038 4.23481L81.28 16.3957C79.49 18.808 75.8841 18.8227 74.0745 16.4251L64.8516 4.20581C63.8658 2.89969 62.3242 2.13184 60.6878 2.13184C57.8067 2.13184 55.4711 4.46744 55.4711 7.34855Z" stroke="#FF0844" stroke-width="3"/>
</g>
<defs>
<filter id="filter0_d_2378_11693" x="0.183594" y="0.631836" width="105.004" height="56.3682" filterUnits="userSpaceOnUse" color-interpolation-filters="sRGB">
<feFlood flood-opacity="0" result="BackgroundImageFix"/>
<feColorMatrix in="SourceAlpha" type="matrix" values="0 0 0 0 0 0 0 0 0 0 0 0 0 0 0 0 0 0 127 0" result="hardAlpha"/>
<feOffset dy="4"/>
<feGaussianBlur stdDeviation="2"/>
<feComposite in2="hardAlpha" operator="out"/>
<feColorMatrix type="matrix" values="0 0 0 0 0 0 0 0 0 0 0 0 0 0 0 0 0 0 0.25 0"/>
<feBlend mode="normal" in2="BackgroundImageFix" result="effect1_dropShadow_2378_11693"/>
<feBlend mode="normal" in="SourceGraphic" in2="effect1_dropShadow_2378_11693" result="shape"/>
</filter>
</defs>
</svg>
